<svg width="171" height="20" viewBox="0 0 171 20" fill="none" xmlns="http://www.w3.org/2000/svg">
<path d="M10.1867 19.1867C8.44444 19.1867 6.86222 18.7778 5.44 17.96C4.01778 17.1244 2.89778 15.9867 2.08 14.5467C1.28 13.0889 0.88 11.4622 0.88 9.66667C0.88 7.87111 1.28 6.25333 2.08 4.81333C2.89778 3.35556 4.01778 2.21778 5.44 1.4C6.86222 0.564444 8.44444 0.146666 10.1867 0.146666C11.52 0.146666 12.7467 0.386666 13.8667 0.866666C15.0044 1.32889 15.9733 2.01333 16.7733 2.92L15.4933 4.2C14.1244 2.72444 12.3911 1.98667 10.2933 1.98667C8.88889 1.98667 7.61778 2.32444 6.48 3C5.34222 3.65778 4.45333 4.57333 3.81333 5.74667C3.17333 6.92 2.85333 8.22667 2.85333 9.66667C2.85333 11.1067 3.17333 12.4133 3.81333 13.5867C4.45333 14.7422 5.34222 15.6578 6.48 16.3333C7.61778 16.9911 8.88889 17.32 10.2933 17.32C12.3733 17.32 14.1067 16.5733 15.4933 15.08L16.7733 16.36C15.9733 17.2844 15.0044 17.9867 13.8667 18.4667C12.7467 18.9467 11.52 19.1867 10.1867 19.1867ZM20.7007 14.04L18.5941 19H16.5141L24.6474 0.333333H26.5674L34.7274 19H32.6207L30.5141 14.04H20.7007ZM25.6341 2.52L21.3674 12.36H29.8207L25.6341 2.52ZM52.8948 4.14667L45.9881 16.6267H45.0815L38.1481 4.28V19H36.2815V0.333333H37.8815L45.5348 14.0933L53.1348 0.333333H54.7615L54.7881 19H52.9215L52.8948 4.14667ZM65.3822 0.333333C67.6577 0.333333 69.4444 0.902222 70.7422 2.04C72.04 3.16 72.6889 4.71556 72.6889 6.70667C72.6889 8.71556 72.04 10.2889 70.7422 11.4267C69.4444 12.5644 67.6577 13.1333 65.3822 13.1333H60.6889V19H58.7155V0.333333H65.3822ZM65.3289 11.32C67.0711 11.32 68.3955 10.92 69.3022 10.12C70.2266 9.32 70.6889 8.18222 70.6889 6.70667C70.6889 5.24889 70.2266 4.12 69.3022 3.32C68.3955 2.52 67.0711 2.12 65.3289 2.12H60.6889V11.32H65.3289ZM87.7006 19H75.114V0.333333H87.354V2.09333H77.0873V8.65333H86.234V10.3867H77.0873V17.2133H87.7006V19ZM98.3203 13C97.947 13.0711 97.4936 13.1067 96.9603 13.1067H92.267V19H90.2936V0.333333H96.9603C99.2359 0.333333 101.023 0.902222 102.32 2.04C103.618 3.16 104.267 4.71556 104.267 6.70667C104.267 8.16444 103.911 9.4 103.2 10.4133C102.507 11.4267 101.511 12.1556 100.214 12.6L104.587 19H102.374L98.3203 13ZM96.907 11.3467C98.6492 11.3467 99.9736 10.9467 100.88 10.1467C101.805 9.32889 102.267 8.18222 102.267 6.70667C102.267 5.24889 101.805 4.12 100.88 3.32C99.9736 2.52 98.6492 2.12 96.907 2.12H92.267V11.3467H96.907ZM115.046 19.1867C113.304 19.1867 111.722 18.7778 110.299 17.96C108.877 17.1244 107.757 15.9867 106.939 14.5467C106.139 13.0889 105.739 11.4622 105.739 9.66667C105.739 7.87111 106.139 6.25333 106.939 4.81333C107.757 3.35556 108.877 2.21778 110.299 1.4C111.722 0.564444 113.304 0.146666 115.046 0.146666C116.379 0.146666 117.606 0.386666 118.726 0.866666C119.864 1.32889 120.833 2.01333 121.633 2.92L120.353 4.2C118.984 2.72444 117.25 1.98667 115.153 1.98667C113.748 1.98667 112.477 2.32444 111.339 3C110.202 3.65778 109.313 4.57333 108.673 5.74667C108.033 6.92 107.713 8.22667 107.713 9.66667C107.713 11.1067 108.033 12.4133 108.673 13.5867C109.313 14.7422 110.202 15.6578 111.339 16.3333C112.477 16.9911 113.748 17.32 115.153 17.32C117.233 17.32 118.966 16.5733 120.353 15.08L121.633 16.36C120.833 17.2844 119.864 17.9867 118.726 18.4667C117.606 18.9467 116.379 19.1867 115.046 19.1867ZM136.333 19H123.747V0.333333H135.987V2.09333H125.72V8.65333H134.867V10.3867H125.72V17.2133H136.333V19ZM154.313 19H152.686L141.353 3.96V19H139.406V0.333333H141.006L152.34 15.3733V0.333333H154.313V19ZM155.914 2.12V0.333333H170.341V2.12H164.101V19H162.154V2.12H155.914Z" fill="#1061FF"/>
</svg>
