<svg width="24" height="24" viewBox="0 0 24 24" fill="none" xmlns="http://www.w3.org/2000/svg">
<path fill-rule="evenodd" clip-rule="evenodd" d="M20.9532 20.4659L19.8749 16.4445C19.8131 16.2191 19.844 15.976 19.9501 15.7639C20.8914 13.8769 21.2051 11.6231 20.6262 9.27205C19.8396 6.0902 17.356 3.53589 14.183 2.69182C13.3168 2.46644 12.4639 2.35596 11.6375 2.35596C5.70691 2.35596 1.07556 7.91976 2.67532 14.1111C3.41775 16.9748 6.47585 19.9401 9.35277 20.6383C10.1306 20.8283 10.8951 20.9167 11.6375 20.9167C13.2328 20.9167 14.7265 20.5057 16.0391 19.7986C16.1849 19.7191 16.3484 19.6749 16.5075 19.6749C16.587 19.6749 16.6666 19.6837 16.7461 19.7058L20.6616 20.7532C20.6837 20.7576 20.7058 20.762 20.7234 20.762C20.8737 20.762 20.993 20.6206 20.9532 20.4659ZM18.6376 16.7759L19.2474 19.0518L17.0776 18.4729C16.892 18.4243 16.7019 18.3978 16.5075 18.3978C16.1363 18.3978 15.7606 18.495 15.4248 18.6762C14.2449 19.3125 12.9721 19.6351 11.6375 19.6351C10.979 19.6351 10.3117 19.5512 9.65328 19.3921C7.21828 18.7999 4.53581 16.1837 3.91712 13.7885C3.27191 11.2872 3.78012 8.71964 5.30917 6.74425C6.83823 4.76886 9.14506 3.63753 11.6375 3.63753C12.3711 3.63753 13.1179 3.73476 13.856 3.93362C16.5826 4.65837 18.6994 6.8238 19.3844 9.58139C19.8661 11.5259 19.6672 13.4659 18.8055 15.1938C18.558 15.6888 18.4961 16.25 18.6376 16.7759Z" fill="#2A2A2A"/>
<path fill-rule="evenodd" clip-rule="evenodd" d="M3.01988 14.0218C1.47963 8.06058 5.93463 2.71153 11.6376 2.71153C12.4319 2.71153 13.2544 2.81767 14.0925 3.03567C17.1383 3.84623 19.5252 6.30026 20.281 9.35724C20.8393 11.6251 20.5359 13.7923 19.632 15.6046C19.4907 15.8872 19.4449 16.2198 19.5317 16.5373C19.5318 16.5377 19.5319 16.5381 19.532 16.5384L20.5557 20.3564L16.8415 19.3629C16.8409 19.3627 16.8403 19.3625 16.8397 19.3624C16.7249 19.3307 16.6133 19.3189 16.5076 19.3189C16.2845 19.3189 16.0631 19.3803 15.8696 19.4857C14.6062 20.1661 13.1705 20.5608 11.6376 20.5608C10.9236 20.5608 10.1874 20.4758 9.43734 20.2925L9.43681 20.2924C8.07564 19.962 6.64616 19.0863 5.4621 17.9318C4.27794 16.7772 3.37059 15.3744 3.01988 14.0218ZM11.6376 3.99311C9.25538 3.99311 7.05238 5.07339 5.59064 6.96182C4.13147 8.84694 3.64296 11.3005 4.26171 13.6993C4.55003 14.8155 5.33104 16.0141 6.35275 17.0117C7.37409 18.0089 8.59918 18.7693 9.73729 19.0461C10.3703 19.1991 11.0094 19.2792 11.6376 19.2792C12.9129 19.2792 14.1277 18.9714 15.256 18.3628C15.6417 18.1548 16.0752 18.0418 16.5076 18.0418C16.7348 18.0418 16.9551 18.0728 17.1678 18.1285L17.1694 18.1289L18.7446 18.5492L18.2941 16.8681C18.1293 16.255 18.2024 15.6045 18.4874 15.0345C19.3096 13.3857 19.5014 11.5328 19.0393 9.66697C18.3852 7.03379 16.3646 4.96831 13.7647 4.27725L13.7635 4.27694C13.0556 4.08618 12.3398 3.99311 11.6376 3.99311Z" fill="#2A2A2A"/>
<path fill-rule="evenodd" clip-rule="evenodd" d="M11.6376 2C5.47947 2 0.671788 7.7785 2.331 14.1999C2.72275 15.711 3.71571 17.2228 4.96538 18.4413C6.21507 19.6598 7.75288 20.6157 9.26846 20.9837C10.0739 21.1805 10.8668 21.2723 11.6376 21.2723C13.2951 21.2723 14.8465 20.8451 16.2079 20.1117L16.2095 20.1108C16.3075 20.0573 16.4129 20.0305 16.5076 20.0305C16.5605 20.0305 16.6074 20.0363 16.651 20.0484L20.5808 21.0996L20.5919 21.1019L20.5951 21.1025C20.6113 21.1059 20.6675 21.1176 20.7236 21.1176C21.0954 21.1176 21.3983 20.7673 21.2979 20.3771L20.2187 16.3521L20.2182 16.3501C20.1817 16.2172 20.1979 16.0638 20.2686 15.9225C21.2471 13.9609 21.5711 11.6204 20.9717 9.18647C20.1543 5.88005 17.5745 3.22563 14.2746 2.34781L14.2727 2.34733C13.3788 2.11474 12.4958 2 11.6376 2ZM11.6376 2.71153C5.93463 2.71153 1.47963 8.06058 3.01988 14.0218C3.37059 15.3744 4.27794 16.7772 5.4621 17.9318C6.64616 19.0863 8.07564 19.962 9.43681 20.2924L9.43734 20.2925C10.1874 20.4758 10.9236 20.5608 11.6376 20.5608C13.1705 20.5608 14.6062 20.1661 15.8696 19.4857C16.0631 19.3803 16.2845 19.3189 16.5076 19.3189C16.6133 19.3189 16.7249 19.3307 16.8397 19.3624L16.8415 19.3629L20.5557 20.3564L19.532 16.5384L19.5317 16.5373C19.4449 16.2198 19.4907 15.8872 19.632 15.6046C20.5359 13.7923 20.8393 11.6251 20.281 9.35724C19.5252 6.30026 17.1383 3.84623 14.0925 3.03567C13.2544 2.81767 12.4319 2.71153 11.6376 2.71153Z" fill="#2A2A2A"/>
</svg>
