<svg width="36" height="36" viewBox="0 0 36 36" fill="none" xmlns="http://www.w3.org/2000/svg">
<path d="M28.5 3H7.5C6.30653 3 5.16193 3.47411 4.31802 4.31802C3.47411 5.16193 3 6.30653 3 7.5V28.5C3 29.6935 3.47411 30.8381 4.31802 31.682C5.16193 32.5259 6.30653 33 7.5 33H28.5C28.7467 32.9966 28.9927 32.9715 29.235 32.925L29.685 32.82H29.79H29.865L30.42 32.61L30.615 32.505C30.765 32.415 30.93 32.34 31.08 32.235C31.2803 32.0876 31.4707 31.9273 31.65 31.755L31.755 31.62C31.9023 31.4708 32.0377 31.3103 32.16 31.14L32.295 30.945C32.3998 30.778 32.4901 30.6024 32.565 30.42C32.6062 30.348 32.6413 30.2728 32.67 30.195C32.745 30.015 32.79 29.82 32.85 29.625V29.4C32.935 29.1069 32.9854 28.8048 33 28.5V7.5C33 6.30653 32.5259 5.16193 31.682 4.31802C30.8381 3.47411 29.6935 3 28.5 3ZM7.5 30C7.10218 30 6.72064 29.842 6.43934 29.5607C6.15804 29.2794 6 28.8978 6 28.5V22.035L10.935 17.085C11.0744 16.9444 11.2403 16.8328 11.4231 16.7567C11.6059 16.6805 11.802 16.6413 12 16.6413C12.198 16.6413 12.3941 16.6805 12.5769 16.7567C12.7597 16.8328 12.9256 16.9444 13.065 17.085L25.965 30H7.5ZM30 28.5C29.9986 28.6849 29.963 28.868 29.895 29.04C29.8607 29.1131 29.8206 29.1833 29.775 29.25C29.7349 29.3135 29.6897 29.3737 29.64 29.43L21.615 21.405L22.935 20.085C23.0744 19.9444 23.2403 19.8328 23.4231 19.7567C23.6059 19.6805 23.802 19.6413 24 19.6413C24.198 19.6413 24.3941 19.6805 24.5769 19.7567C24.7597 19.8328 24.9256 19.9444 25.065 20.085V20.085L30 25.035V28.5ZM30 20.79L27.18 18C26.3216 17.1855 25.1833 16.7314 24 16.7314C22.8167 16.7314 21.6784 17.1855 20.82 18L19.5 19.32L15.18 15C14.3216 14.1855 13.1833 13.7314 12 13.7314C10.8167 13.7314 9.67842 14.1855 8.82 15L6 17.79V7.5C6 7.10218 6.15804 6.72064 6.43934 6.43934C6.72064 6.15804 7.10218 6 7.5 6H28.5C28.8978 6 29.2794 6.15804 29.5607 6.43934C29.842 6.72064 30 7.10218 30 7.5V20.79ZM20.25 9C19.805 9 19.37 9.13196 19 9.37919C18.63 9.62643 18.3416 9.97783 18.1713 10.389C18.001 10.8001 17.9564 11.2525 18.0432 11.689C18.13 12.1254 18.3443 12.5263 18.659 12.841C18.9737 13.1557 19.3746 13.37 19.811 13.4568C20.2475 13.5436 20.6999 13.499 21.111 13.3287C21.5222 13.1584 21.8736 12.87 22.1208 12.5C22.368 12.13 22.5 11.695 22.5 11.25C22.5 10.6533 22.2629 10.081 21.841 9.65901C21.419 9.23705 20.8467 9 20.25 9Z" fill="#F5F5F5"/>
</svg>
