<svg width="16" height="17" viewBox="0 0 16 17" fill="none" xmlns="http://www.w3.org/2000/svg">
<path d="M3.5 7.5C3.36739 7.5 3.24021 7.55268 3.14645 7.64645C3.05268 7.74021 3 7.86739 3 8V14C3 14.1326 3.05268 14.2598 3.14645 14.3536C3.24021 14.4473 3.36739 14.5 3.5 14.5H12.5C12.6326 14.5 12.7598 14.4473 12.8536 14.3536C12.9473 14.2598 13 14.1326 13 14V8C13 7.86739 12.9473 7.74021 12.8536 7.64645C12.7598 7.55268 12.6326 7.5 12.5 7.5H3.5ZM3.5 6.5H12.5C12.8978 6.5 13.2794 6.65804 13.5607 6.93934C13.842 7.22064 14 7.60218 14 8V14C14 14.3978 13.842 14.7794 13.5607 15.0607C13.2794 15.342 12.8978 15.5 12.5 15.5H3.5C3.10218 15.5 2.72064 15.342 2.43934 15.0607C2.15804 14.7794 2 14.3978 2 14V8C2 7.60218 2.15804 7.22064 2.43934 6.93934C2.72064 6.65804 3.10218 6.5 3.5 6.5Z" fill="black"/>
<path d="M8 9C8.13261 9 8.25979 9.05268 8.35355 9.14645C8.44732 9.24021 8.5 9.36739 8.5 9.5V12.5C8.5 12.6326 8.44732 12.7598 8.35355 12.8536C8.25979 12.9473 8.13261 13 8 13C7.86739 13 7.74021 12.9473 7.64645 12.8536C7.55268 12.7598 7.5 12.6326 7.5 12.5V9.5C7.5 9.36739 7.55268 9.24021 7.64645 9.14645C7.74021 9.05268 7.86739 9 8 9ZM11 6.5V5.5C11 4.70435 10.6839 3.94129 10.1213 3.37868C9.55871 2.81607 8.79565 2.5 8 2.5C7.20435 2.5 6.44129 2.81607 5.87868 3.37868C5.31607 3.94129 5 4.70435 5 5.5V6.5H11ZM8 1.5C9.06087 1.5 10.0783 1.92143 10.8284 2.67157C11.5786 3.42172 12 4.43913 12 5.5V7.5H4V5.5C4 4.43913 4.42143 3.42172 5.17157 2.67157C5.92172 1.92143 6.93913 1.5 8 1.5Z" fill="black"/>
</svg>
