<svg width="16" height="16" viewBox="0 0 16 16" fill="none" xmlns="http://www.w3.org/2000/svg">
<g clip-path="url(#clip0_1008_13771)">
<path d="M12.5 6.01701L5.36 6.01703L5.10125 4.85651C4.66 3.21001 5.4265 1.56851 7.18075 1.09851C8.91725 0.633264 10.4478 1.62876 10.8968 3.30351L11.1093 4.14675C11.1807 4.41351 11.4548 4.57175 11.7218 4.50025C11.9885 4.42875 12.1467 4.15475 12.0752 3.888L11.8625 3.04475C11.269 0.828498 9.20023 -0.477752 6.922 0.132498C4.635 0.745233 3.5515 2.936 4.1355 5.1155L4.3365 6.017H3.5C2.397 6.017 1.5 6.914 1.5 8.017V14.017C1.5 15.12 2.397 16.017 3.5 16.017H12.5C13.603 16.017 14.5 15.12 14.5 14.017V8.017C14.5 6.914 13.603 6.017 12.5 6.017V6.01701ZM13.5 14.017C13.5 14.5683 13.0513 15.017 12.5 15.017H3.5C2.94875 15.017 2.5 14.5683 2.5 14.017V8.01701C2.5 7.46576 2.94875 7.01701 3.5 7.01701H12.5C13.0513 7.01701 13.5 7.46576 13.5 8.01701V14.017ZM8 9.01701C7.44775 9.01701 7 9.46476 7 10.017C7 10.3863 7.2025 10.705 7.5 10.8783V12.517C7.5 12.793 7.724 13.017 8 13.017C8.276 13.017 8.5 12.793 8.5 12.517V10.8783C8.7975 10.705 9 10.386 9 10.017C9 9.46476 8.55225 9.01701 8 9.01701Z" fill="black"/>
</g>
<defs>
<clipPath id="clip0_1008_13771">
<rect width="16" height="16" fill="white"/>
</clipPath>
</defs>
</svg>
