<svg width="27" height="27" viewBox="0 0 27 27" fill="none" xmlns="http://www.w3.org/2000/svg">
<path d="M5.64634 16.3719C5.64634 12.1523 8.94474 8.73169 13.0137 8.73169H13.5594C17.6284 8.73169 20.9268 12.1523 20.9268 16.3719C20.9268 20.5915 17.6284 24.0122 13.5594 24.0122H13.0137C8.94474 24.0122 5.64634 20.5915 5.64634 16.3719Z" stroke="black" stroke-width="1.5" stroke-linecap="round" stroke-linejoin="round"/>
<path d="M11.6494 14.3178C11.7367 13.461 12.3119 13.0975 12.9133 13.0975H13.6402C14.2405 13.0975 14.8157 13.461 14.903 14.3178C14.9296 14.5951 14.9296 14.8743 14.903 15.1516C14.831 15.8589 14.3464 16.3719 13.8225 16.3719M13.8225 16.3719C14.3464 16.3719 14.831 16.8849 14.903 17.5921C14.9296 17.8695 14.9296 18.1487 14.903 18.426C14.8157 19.2828 14.2405 19.6463 13.6402 19.6463H12.9133C12.3119 19.6463 11.7367 19.2828 11.6494 18.426M13.8225 16.3719H13.757M14.9893 2.18286L12.1951 8.62031M19.8354 2.18286L16.7563 9.27737M11.5839 2.18286L13.2866 6.10558M6.7378 2.18286L9.81682 9.27737" stroke="black" stroke-width="1.5" stroke-linecap="round" stroke-linejoin="round"/>
</svg>
