<svg width="24" height="22" viewBox="0 0 24 22" fill="none" xmlns="http://www.w3.org/2000/svg">
<path d="M11.0122 7.00024L12.6494 5.50024V9.50024" stroke="black" stroke-width="1.5" stroke-linecap="round" stroke-linejoin="round"/>
<path d="M19.7439 4.00024L20.7797 4.31624C21.8602 4.64624 22.4005 4.81124 22.7094 5.20424C23.0183 5.59724 23.0183 6.12024 23.0183 7.16224V7.23524C23.0183 8.09524 23.0183 8.52624 22.7924 8.87824C22.5664 9.23024 22.1549 9.43924 21.3342 9.85824L18.1067 11.5002M4.46341 4.00024L3.42762 4.31624C2.34707 4.64624 1.80679 4.81124 1.49791 5.20424C1.18902 5.59724 1.18902 6.12024 1.18902 7.16224V7.23524C1.18902 8.09524 1.18902 8.52624 1.41496 8.87824C1.64089 9.23024 2.05237 9.43924 2.87315 9.85824L6.10061 11.5002" stroke="black" stroke-width="1.5"/>
<path d="M12.1037 15.0002V18.0002" stroke="black" stroke-width="1.5" stroke-linecap="round"/>
<path d="M15.9238 21.0002H8.28354L8.65463 19.3042C8.70407 19.0776 8.83764 18.8737 9.03265 18.7271C9.22765 18.5806 9.47204 18.5004 9.72427 18.5002H14.483C14.7353 18.5004 14.9797 18.5806 15.1747 18.7271C15.3697 18.8737 15.5032 19.0776 15.5527 19.3042L15.9238 21.0002Z" stroke="black" stroke-width="1.5" stroke-linecap="round" stroke-linejoin="round"/>
<path d="M18.6524 21.0002H5.55488M17.561 1.45623C18.3698 1.59723 18.85 1.75323 19.2637 2.22123C19.7843 2.80723 19.757 3.44023 19.7013 4.70623C19.5049 9.25923 18.3916 15.0002 12.1048 15.0002C5.81792 15.0002 4.70354 9.26023 4.50489 4.70623C4.45032 3.44023 4.42303 2.80623 4.94148 2.22123C5.46101 1.63523 6.08206 1.53923 7.32523 1.34723C8.90476 1.11017 10.5031 0.994103 12.1037 1.00023C12.8881 1.00156 13.6157 1.02423 14.2866 1.06823" stroke="black" stroke-width="1.5" stroke-linecap="round"/>
</svg>
