<svg width="150" height="42" viewBox="0 0 150 42" fill="none" xmlns="http://www.w3.org/2000/svg">
<path d="M17.8984 16.0723L15.5605 22.418C14.5996 21.5039 13.627 21.0469 12.6426 21.0469C11.752 21.0469 10.9785 21.3516 10.3223 21.9609C9.67773 22.5586 9.05664 23.6719 8.45898 25.3008V33H2.13086V15.1055H8.45898V19.4297C8.85742 18.3633 9.56055 17.3262 10.5684 16.3184C11.5762 15.2988 12.7598 14.7891 14.1191 14.7891C14.834 14.7891 15.4551 14.8945 15.9824 15.1055C16.5215 15.3164 17.1602 15.6387 17.8984 16.0723ZM36.7246 25.582H24.1211C24.3672 26.6719 24.9707 27.5625 25.9316 28.2539C26.8926 28.9453 27.9824 29.291 29.2012 29.291C31.334 29.291 33.6895 28.6934 36.2676 27.498V31.418C35.3418 31.8984 34.2168 32.3379 32.8926 32.7363C31.5801 33.123 29.9043 33.3164 27.8652 33.3164C25.6621 33.3164 23.7871 32.9062 22.2402 32.0859C20.6934 31.2656 19.5332 30.1523 18.7598 28.7461C17.998 27.3398 17.6172 25.7461 17.6172 23.9648C17.6172 22.207 17.998 20.6367 18.7598 19.2539C19.5332 17.8594 20.6934 16.7695 22.2402 15.9844C23.7871 15.1875 25.6621 14.7891 27.8652 14.7891C29.3184 14.7891 30.7188 15.1055 32.0664 15.7383C33.4258 16.3594 34.5391 17.3848 35.4062 18.8145C36.2852 20.2324 36.7246 22.0664 36.7246 24.3164V25.582ZM30.7832 22.4531C30.7832 21.3047 30.4961 20.3906 29.9219 19.7109C29.3594 19.0195 28.5449 18.6738 27.4785 18.6738C26.4238 18.6738 25.5684 19.0254 24.9121 19.7285C24.2676 20.4199 23.9453 21.3281 23.9453 22.4531H30.7832ZM72.5293 13.1719C71.5684 12.9492 70.7891 12.8379 70.1914 12.8379C69.5117 12.8379 68.9785 13.0605 68.5918 13.5059C68.2168 13.9512 68.0293 14.584 68.0293 15.4043V16.0371H71.2285V20.3262H68.0293V33H61.6836V20.3262H58.7656V16.0371H61.6836V15.7207C61.6836 14.4668 61.9238 13.2832 62.4043 12.1699C62.8965 11.0449 63.7109 10.1191 64.8477 9.39258C65.9844 8.66602 67.4844 8.30273 69.3477 8.30273C70.4023 8.30273 71.4629 8.41406 72.5293 8.63672V13.1719ZM89.5625 16.0723L87.2246 22.418C86.2637 21.5039 85.291 21.0469 84.3066 21.0469C83.416 21.0469 82.6426 21.3516 81.9863 21.9609C81.3418 22.5586 80.7207 23.6719 80.123 25.3008V33H73.7949V15.1055H80.123V19.4297C80.5215 18.3633 81.2246 17.3262 82.2324 16.3184C83.2402 15.2988 84.4238 14.7891 85.7832 14.7891C86.498 14.7891 87.1191 14.8945 87.6465 15.1055C88.1855 15.3164 88.8242 15.6387 89.5625 16.0723ZM108.389 25.582H95.7852C96.0312 26.6719 96.6348 27.5625 97.5957 28.2539C98.5566 28.9453 99.6465 29.291 100.865 29.291C102.998 29.291 105.354 28.6934 107.932 27.498V31.418C107.006 31.8984 105.881 32.3379 104.557 32.7363C103.244 33.123 101.568 33.3164 99.5293 33.3164C97.3262 33.3164 95.4512 32.9062 93.9043 32.0859C92.3574 31.2656 91.1973 30.1523 90.4238 28.7461C89.6621 27.3398 89.2812 25.7461 89.2812 23.9648C89.2812 22.207 89.6621 20.6367 90.4238 19.2539C91.1973 17.8594 92.3574 16.7695 93.9043 15.9844C95.4512 15.1875 97.3262 14.7891 99.5293 14.7891C100.982 14.7891 102.383 15.1055 103.73 15.7383C105.09 16.3594 106.203 17.3848 107.07 18.8145C107.949 20.2324 108.389 22.0664 108.389 24.3164V25.582ZM102.447 22.4531C102.447 21.3047 102.16 20.3906 101.586 19.7109C101.023 19.0195 100.209 18.6738 99.1426 18.6738C98.0879 18.6738 97.2324 19.0254 96.5762 19.7285C95.9316 20.4199 95.6094 21.3281 95.6094 22.4531H102.447ZM125.51 27.7793C125.51 29.4199 124.906 30.7559 123.699 31.7871C122.504 32.8066 120.723 33.3164 118.355 33.3164C117.031 33.3164 115.854 33.1992 114.822 32.9648C113.791 32.7188 112.666 32.373 111.447 31.9277V27.4277C112.514 28.0371 113.439 28.5 114.225 28.8164C115.01 29.1328 115.871 29.291 116.809 29.291C118.391 29.291 119.182 28.8574 119.182 27.9902C119.182 27.6973 119.064 27.4395 118.83 27.2168C118.607 26.9824 118.209 26.7246 117.635 26.4434C117.072 26.1504 116.316 25.8047 115.367 25.4062C114.195 24.8906 113.199 24.1992 112.379 23.332C111.559 22.4648 111.148 21.4043 111.148 20.1504C111.148 19.2598 111.418 18.4043 111.957 17.584C112.508 16.7637 113.334 16.0957 114.436 15.5801C115.537 15.0527 116.867 14.7891 118.426 14.7891C118.801 14.7891 119.275 14.8184 119.85 14.877C120.436 14.9238 121.168 15.0586 122.047 15.2812C122.938 15.5039 123.781 15.8203 124.578 16.2305V20.6074C124.203 20.3848 123.887 20.1973 123.629 20.0449C123.383 19.8926 123.049 19.7227 122.627 19.5352C122.205 19.3477 121.707 19.1836 121.133 19.043C120.57 18.8906 119.99 18.8145 119.393 18.8145C118.666 18.8145 118.168 18.9551 117.898 19.2363C117.629 19.5176 117.494 19.7988 117.494 20.0801C117.494 20.373 117.635 20.6484 117.916 20.9062C118.197 21.1523 118.824 21.4629 119.797 21.8379C121.203 22.377 122.328 22.9336 123.172 23.5078C124.016 24.0703 124.613 24.6914 124.965 25.3711C125.328 26.0508 125.51 26.8535 125.51 27.7793ZM148.062 33H141.734V23.7188C141.734 23.6484 141.734 23.584 141.734 23.5254C141.746 23.4551 141.752 23.3145 141.752 23.1035C141.752 22.248 141.57 21.4629 141.207 20.748C140.844 20.0332 140.152 19.6758 139.133 19.6758C138.336 19.6758 137.633 19.9453 137.023 20.4844C136.414 21.0117 135.834 21.6797 135.283 22.4883V33H128.955V8.63672H135.283V17.6719C136.326 16.5586 137.357 15.8027 138.377 15.4043C139.396 14.9941 140.48 14.7891 141.629 14.7891C145.918 14.7891 148.062 17.1973 148.062 22.0137V33Z" fill="url(#paint0_linear_1440_14276)"/>
<path d="M50.5156 17.1719C50.5156 18.1198 50.1875 18.9219 49.5312 19.5781C48.875 20.2344 48.0833 20.5625 47.1562 20.5625C46.2292 20.5625 45.4427 20.2344 44.7969 19.5781C44.151 18.9219 43.8281 18.1302 43.8281 17.2031C43.8281 16.2344 44.1667 15.4271 44.8438 14.7812C45.5208 14.1354 46.3021 13.8125 47.1875 13.8125C47.7604 13.8125 48.3073 13.9635 48.8281 14.2656C49.349 14.5573 49.7604 14.9635 50.0625 15.4844C50.3646 15.9948 50.5156 16.5573 50.5156 17.1719ZM51.1562 28.5C51.1562 29.1979 51.0156 29.9115 50.7344 30.6406C50.4635 31.3802 50.0365 32.0729 49.4531 32.7188C48.8802 33.3646 48.1094 33.9219 47.1406 34.3906C46.1823 34.8698 45.0677 35.1979 43.7969 35.375V34.3906C45.4323 33.7656 46.25 32.3802 46.25 30.2344V29.9062C44.6146 29.4375 43.7969 28.4115 43.7969 26.8281C43.7969 26.0677 44.0885 25.3333 44.6719 24.625C45.2552 23.9167 46.0729 23.5625 47.125 23.5625C48.0104 23.5625 48.7552 23.8073 49.3594 24.2969C49.9635 24.7865 50.4115 25.4115 50.7031 26.1719C51.0052 26.9323 51.1562 27.7083 51.1562 28.5Z" fill="url(#paint1_linear_1440_14276)"/>
<defs>
<linearGradient id="paint0_linear_1440_14276" x1="68.5" y1="11" x2="68.5" y2="33" gradientUnits="userSpaceOnUse">
<stop stop-color="#0F3CBE"/>
<stop offset="1" stop-color="#92AEEF"/>
</linearGradient>
<linearGradient id="paint1_linear_1440_14276" x1="47.11" y1="10.6429" x2="47.11" y2="27.9286" gradientUnits="userSpaceOnUse">
<stop stop-color="#0F3CBE"/>
<stop offset="1" stop-color="#92AEEF"/>
</linearGradient>
</defs>
</svg>
