<svg width="24" height="24" viewBox="0 0 24 24" fill="none" xmlns="http://www.w3.org/2000/svg">
<path d="M12 12C10.7625 12 9.70312 11.4859 8.82187 10.4578C7.94062 9.42969 7.5 8.19375 7.5 6.75C7.5 5.30625 7.94062 4.07031 8.82187 3.04219C9.70312 2.01406 10.7625 1.5 12 1.5C13.2375 1.5 14.2969 2.01406 15.1781 3.04219C16.0594 4.07031 16.5 5.30625 16.5 6.75C16.5 8.19375 16.0594 9.42969 15.1781 10.4578C14.2969 11.4859 13.2375 12 12 12ZM3 22.5V18.825C3 18.0813 3.16425 17.3979 3.49275 16.7749C3.82125 16.1519 4.257 15.6759 4.8 15.3469C5.9625 14.6688 7.14375 14.1604 8.34375 13.8217C9.54375 13.4831 10.7625 13.3134 12 13.3125C13.2375 13.3116 14.4562 13.4814 15.6562 13.8217C16.8562 14.1621 18.0375 14.6705 19.2 15.3469C19.7437 15.675 20.1799 16.151 20.5084 16.7749C20.8369 17.3987 21.0007 18.0821 21 18.825V22.5H3ZM5.25 19.875H18.75V18.825C18.75 18.5844 18.6986 18.3656 18.5959 18.1688C18.4931 17.9719 18.357 17.8188 18.1875 17.7094C17.175 17.1188 16.1531 16.676 15.1219 16.3811C14.0906 16.0863 13.05 15.9384 12 15.9375C10.95 15.9366 9.90937 16.0845 8.87812 16.3811C7.84687 16.6778 6.825 17.1205 5.8125 17.7094C5.64375 17.8188 5.50762 17.9719 5.40412 18.1688C5.30062 18.3656 5.24925 18.5844 5.25 18.825V19.875ZM12 9.375C12.6187 9.375 13.1486 9.11819 13.5896 8.60456C14.0306 8.09094 14.2507 7.47275 14.25 6.75C14.2492 6.02725 14.0291 5.4095 13.5896 4.89675C13.1501 4.384 12.6202 4.12675 12 4.125C11.3797 4.12325 10.8502 4.3805 10.4115 4.89675C9.97275 5.413 9.75225 6.03075 9.75 6.75C9.74775 7.46925 9.96825 8.08744 10.4115 8.60456C10.8547 9.12169 11.3842 9.3785 12 9.375Z" fill="white"/>
</svg>
