<svg width="390" height="241" viewBox="0 0 390 241" fill="none" xmlns="http://www.w3.org/2000/svg">
<g filter="url(#filter0_f_1477_5539)">
<ellipse cx="195.5" cy="120.5" rx="161.5" ry="80.5" fill="white" fill-opacity="0.52"/>
</g>
<path d="M97.7188 111.906L93.5625 123.188C91.8542 121.562 90.125 120.75 88.375 120.75C86.7917 120.75 85.4167 121.292 84.25 122.375C83.1042 123.438 82 125.417 80.9375 128.312V142H69.6875V110.188H80.9375V117.875C81.6458 115.979 82.8958 114.135 84.6875 112.344C86.4792 110.531 88.5833 109.625 91 109.625C92.2708 109.625 93.375 109.812 94.3125 110.188C95.2708 110.562 96.4062 111.135 97.7188 111.906ZM131.188 128.812H108.781C109.219 130.75 110.292 132.333 112 133.562C113.708 134.792 115.646 135.406 117.812 135.406C121.604 135.406 125.792 134.344 130.375 132.219V139.188C128.729 140.042 126.729 140.823 124.375 141.531C122.042 142.219 119.062 142.562 115.438 142.562C111.521 142.562 108.188 141.833 105.438 140.375C102.688 138.917 100.625 136.938 99.25 134.438C97.8958 131.938 97.2188 129.104 97.2188 125.938C97.2188 122.812 97.8958 120.021 99.25 117.562C100.625 115.083 102.688 113.146 105.438 111.75C108.188 110.333 111.521 109.625 115.438 109.625C118.021 109.625 120.51 110.188 122.906 111.312C125.323 112.417 127.302 114.24 128.844 116.781C130.406 119.302 131.188 122.562 131.188 126.562V128.812ZM120.625 123.25C120.625 121.208 120.115 119.583 119.094 118.375C118.094 117.146 116.646 116.531 114.75 116.531C112.875 116.531 111.354 117.156 110.188 118.406C109.042 119.635 108.469 121.25 108.469 123.25H120.625ZM153.844 116.344C153.844 118.24 153.188 119.844 151.875 121.156C150.562 122.469 148.979 123.125 147.125 123.125C145.271 123.125 143.698 122.469 142.406 121.156C141.115 119.844 140.469 118.26 140.469 116.406C140.469 114.469 141.146 112.854 142.5 111.562C143.854 110.271 145.417 109.625 147.188 109.625C148.333 109.625 149.427 109.927 150.469 110.531C151.51 111.115 152.333 111.927 152.938 112.969C153.542 113.99 153.844 115.115 153.844 116.344ZM155.125 139C155.125 140.396 154.844 141.823 154.281 143.281C153.74 144.76 152.885 146.146 151.719 147.438C150.573 148.729 149.031 149.844 147.094 150.781C145.177 151.74 142.948 152.396 140.406 152.75V150.781C143.677 149.531 145.312 146.76 145.312 142.469V141.812C142.042 140.875 140.406 138.823 140.406 135.656C140.406 134.135 140.99 132.667 142.156 131.25C143.323 129.833 144.958 129.125 147.062 129.125C148.833 129.125 150.323 129.615 151.531 130.594C152.74 131.573 153.635 132.823 154.219 134.344C154.823 135.865 155.125 137.417 155.125 139ZM187.375 106.75C185.667 106.354 184.281 106.156 183.219 106.156C182.01 106.156 181.062 106.552 180.375 107.344C179.708 108.135 179.375 109.26 179.375 110.719V111.844H185.062V119.469H179.375V142H168.094V119.469H162.906V111.844H168.094V111.281C168.094 109.052 168.521 106.948 169.375 104.969C170.25 102.969 171.698 101.323 173.719 100.031C175.74 98.7396 178.406 98.0938 181.719 98.0938C183.594 98.0938 185.479 98.2917 187.375 98.6875V106.75ZM217.656 111.906L213.5 123.188C211.792 121.562 210.062 120.75 208.312 120.75C206.729 120.75 205.354 121.292 204.188 122.375C203.042 123.438 201.938 125.417 200.875 128.312V142H189.625V110.188H200.875V117.875C201.583 115.979 202.833 114.135 204.625 112.344C206.417 110.531 208.521 109.625 210.938 109.625C212.208 109.625 213.312 109.812 214.25 110.188C215.208 110.562 216.344 111.135 217.656 111.906ZM251.125 128.812H228.719C229.156 130.75 230.229 132.333 231.938 133.562C233.646 134.792 235.583 135.406 237.75 135.406C241.542 135.406 245.729 134.344 250.312 132.219V139.188C248.667 140.042 246.667 140.823 244.312 141.531C241.979 142.219 239 142.562 235.375 142.562C231.458 142.562 228.125 141.833 225.375 140.375C222.625 138.917 220.562 136.938 219.188 134.438C217.833 131.938 217.156 129.104 217.156 125.938C217.156 122.812 217.833 120.021 219.188 117.562C220.562 115.083 222.625 113.146 225.375 111.75C228.125 110.333 231.458 109.625 235.375 109.625C237.958 109.625 240.448 110.188 242.844 111.312C245.26 112.417 247.24 114.24 248.781 116.781C250.344 119.302 251.125 122.562 251.125 126.562V128.812ZM240.562 123.25C240.562 121.208 240.052 119.583 239.031 118.375C238.031 117.146 236.583 116.531 234.688 116.531C232.812 116.531 231.292 117.156 230.125 118.406C228.979 119.635 228.406 121.25 228.406 123.25H240.562ZM281.562 132.719C281.562 135.635 280.49 138.01 278.344 139.844C276.219 141.656 273.052 142.562 268.844 142.562C266.49 142.562 264.396 142.354 262.562 141.938C260.729 141.5 258.729 140.885 256.562 140.094V132.094C258.458 133.177 260.104 134 261.5 134.562C262.896 135.125 264.427 135.406 266.094 135.406C268.906 135.406 270.312 134.635 270.312 133.094C270.312 132.573 270.104 132.115 269.688 131.719C269.292 131.302 268.583 130.844 267.562 130.344C266.562 129.823 265.219 129.208 263.531 128.5C261.448 127.583 259.677 126.354 258.219 124.812C256.76 123.271 256.031 121.385 256.031 119.156C256.031 117.573 256.51 116.052 257.469 114.594C258.448 113.135 259.917 111.948 261.875 111.031C263.833 110.094 266.198 109.625 268.969 109.625C269.635 109.625 270.479 109.677 271.5 109.781C272.542 109.865 273.844 110.104 275.406 110.5C276.99 110.896 278.49 111.458 279.906 112.188V119.969C279.24 119.573 278.677 119.24 278.219 118.969C277.781 118.698 277.188 118.396 276.438 118.062C275.688 117.729 274.802 117.438 273.781 117.188C272.781 116.917 271.75 116.781 270.688 116.781C269.396 116.781 268.51 117.031 268.031 117.531C267.552 118.031 267.312 118.531 267.312 119.031C267.312 119.552 267.562 120.042 268.062 120.5C268.562 120.938 269.677 121.49 271.406 122.156C273.906 123.115 275.906 124.104 277.406 125.125C278.906 126.125 279.969 127.229 280.594 128.438C281.24 129.646 281.562 131.073 281.562 132.719ZM321.656 142H310.406V125.5C310.406 125.375 310.406 125.26 310.406 125.156C310.427 125.031 310.438 124.781 310.438 124.406C310.438 122.885 310.115 121.49 309.469 120.219C308.823 118.948 307.594 118.312 305.781 118.312C304.365 118.312 303.115 118.792 302.031 119.75C300.948 120.688 299.917 121.875 298.938 123.312V142H287.688V98.6875H298.938V114.75C300.792 112.771 302.625 111.427 304.438 110.719C306.25 109.99 308.177 109.625 310.219 109.625C317.844 109.625 321.656 113.906 321.656 122.469V142Z" fill="url(#paint0_linear_1477_5539)"/>
<defs>
<filter id="filter0_f_1477_5539" x="-5.7" y="0.299999" width="402.4" height="240.4" filterUnits="userSpaceOnUse" color-interpolation-filters="sRGB">
<feFlood flood-opacity="0" result="BackgroundImageFix"/>
<feBlend mode="normal" in="SourceGraphic" in2="BackgroundImageFix" result="shape"/>
<feGaussianBlur stdDeviation="19.85" result="effect1_foregroundBlur_1477_5539"/>
</filter>
<linearGradient id="paint0_linear_1477_5539" x1="184.277" y1="102.381" x2="184.277" y2="141.143" gradientUnits="userSpaceOnUse">
<stop stop-color="#0F3CBE"/>
<stop offset="1" stop-color="#92AEEF"/>
</linearGradient>
</defs>
</svg>
