<svg width="20" height="20" viewBox="0 0 20 20" fill="none" xmlns="http://www.w3.org/2000/svg">
<path d="M18.3333 10.0001C18.3333 14.6026 14.6025 18.3334 9.99999 18.3334C5.39749 18.3334 1.66666 14.6026 1.66666 10.0001C1.66666 5.39758 5.39749 1.66675 9.99999 1.66675V3.33341C8.43229 3.33354 6.91478 3.88613 5.71409 4.89411C4.51339 5.90208 3.70632 7.30095 3.43469 8.84494C3.16305 10.3889 3.44422 11.9792 4.22879 13.3365C5.01337 14.6937 6.25115 15.7311 7.72468 16.2663C9.1982 16.8014 10.8132 16.8002 12.2859 16.2628C13.7586 15.7254 14.9948 14.6861 15.7773 13.3277C16.5598 11.9693 16.8386 10.3785 16.5646 8.83493C16.2906 7.29136 15.4814 5.89372 14.2792 4.88758L12.5 6.66675V1.66675H17.5L15.4608 3.70591C16.3633 4.48741 17.087 5.45404 17.5827 6.54012C18.0783 7.62619 18.3343 8.80625 18.3333 10.0001Z" fill="#8A8A8A"/>
</svg>
