<svg width="18" height="19" viewBox="0 0 18 19" fill="none" xmlns="http://www.w3.org/2000/svg">
<path d="M3.89718 3.43652C0.88521 5.04004 0 7.96085 0 9.54697C0 11.8087 1.8 16.7844 9 16.7844C11.8843 16.7844 13.902 15.9859 15.2846 14.8832L11.3792 10.9575C10.9727 11.7392 10.1796 12.261 9 12.261C7.2 12.261 6.3 11.0459 6.3 9.54697C6.3 8.50969 6.73097 7.60834 7.5929 7.1515L3.89718 3.43652Z" fill="#8A8A8A"/>
<path d="M11.695 9.35577C11.6239 7.99867 10.7888 6.91638 9.18971 6.83739L5.23792 2.86502C6.28767 2.5163 7.53152 2.30933 8.99999 2.30933C16.2 2.30933 18 7.28511 18 9.54686C18 10.6607 17.5634 12.4329 16.2602 13.9447L11.695 9.35577Z" fill="#8A8A8A"/>
<path d="M0.236902 0.701366C0.499141 0.437761 0.924312 0.437761 1.18655 0.701366L17.7503 17.3514C18.0125 17.615 18.0125 18.0424 17.7503 18.306C17.488 18.5696 17.0628 18.5696 16.8006 18.306L0.236902 1.65597C-0.0253378 1.39236 -0.0253378 0.964972 0.236902 0.701366Z" fill="#8A8A8A"/>
</svg>
